:FULLY-SPECIFIED
:DEGREES
992
root 3.53779 16.37 -3.41778 162.949 -94.3212 -156.677
lowerback 0.680384 -0.463563 -1.12484
upperback 0.368297 -0.626539 0.956467
thorax 0.0183837 -0.316978 1.61359
lowerneck -18.7976 0.745856 0.37382
upperneck 17.7186 1.14656 -1.2875
head 8.63964 0.403855 -0.354508
rclavicle -1.31198e-014 -1.59028e-015
rhumerus -31.3307 -7.85447 -80.2617
rradius 18.8296
rwrist 33.9345
rhand -25.614 2.28489
rfingers 7.12502
rthumb 0.918536 -27.6929
lclavicle -1.31198e-014 -1.59028e-015
lhumerus -26.9114 8.3682 88.0553
lradius 15.4721
lwrist -22.4413
lhand -24.0849 2.03311
lfingers 7.12502
lthumb 2.39539 31.9994
rfemur -25.731 7.57142 21.3194
rtibia 27.9118
rfoot -8.58159 -12.5347
rtoes -6.67235
lfemur 0.523859 -8.36075 -27.1687
ltibia 31.4424
lfoot -15.646 -0.392601
ltoes -24.497
993
root 3.52082 16.3786 -3.43489 165.94 -94.1884 -159.66
lowerback 0.589814 -0.433138 -0.885837
upperback 0.328353 -0.584454 1.03361
thorax 0.0251108 -0.295669 1.55769
lowerneck -18.8456 0.734948 0.35712
upperneck 17.915 1.12198 -1.22208
head 8.7144 0.396086 -0.33289
rclavicle -1.55052e-014 -1.59028e-015
rhumerus -31.3493 -7.56924 -80.3579
rradius 18.9628
rwrist 33.7914
rhand -25.428 2.48729
rfingers 7.12502
rthumb 1.09815 -27.4896
lclavicle -1.55052e-014 -1.59028e-015
lhumerus -27.1646 8.93534 87.7017
lradius 15.0093
lwrist -23.43
lhand -23.557 2.07563
lfingers 7.12502
lthumb 2.90516 32.0356
rfemur -25.1564 7.56844 21.7885
rtibia 27.8103
rfoot -8.72673 -12.3001
rtoes -5.55023
lfemur -0.60715 -7.20809 -26.4499
ltibia 34.0361
lfoot -14.5663 -1.78354
ltoes -23.6975
994
root 3.50714 16.3812 -3.45401 169.799 -94.0849 -163.5
lowerback 0.510135 -0.406606 -0.630709
upperback 0.293733 -0.548295 1.13651
thorax 0.0317108 -0.277543 1.5193
lowerneck -18.8963 0.719281 0.242993
upperneck 18.0841 1.10748 -1.10569
head 8.77972 0.392182 -0.276522
rclavicle -9.14409e-015 -8.74653e-015
rhumerus -31.3277 -7.13573 -80.4764
rradius 19.128
rwrist 33.4468
rhand -25.2507 2.80444
rfingers 7.12502
rthumb 1.26948 -27.1715
lclavicle -9.14409e-015 -8.74653e-015
lhumerus -27.4053 9.4788 87.3645
lradius 14.7049
lwrist -24.3397
lhand -22.8594 2.1207
lfingers 7.12502
lthumb 3.57891 32.0704
rfemur -24.6033 7.57456 22.3098
rtibia 27.6802
rfoot -8.83287 -12.0494
rtoes -4.41101
lfemur -1.85065 -6.01737 -25.6535
ltibia 36.7043
lfoot -13.1849 -3.07102
ltoes -23.7582
995
root 3.49318 16.3872 -3.47151 172.617 -94.015 -166.295
lowerback 0.444125 -0.332954 -0.431013
upperback 0.220256 -0.4491 1.17144
thorax -0.010834 -0.227319 1.44245
lowerneck -18.8633 0.653718 0.273151
upperneck 18.242 0.998089 -1.06381
head 8.82699 0.345852 -0.281704
rclavicle 9.54166e-015 8.74653e-015
rhumerus -31.4078 -6.81604 -80.6132
rradius 19.3173
rwrist 33.0264
rhand -25.0695 2.67957
rfingers 7.12502
rthumb 1.44443 -27.2953
lclavicle 9.54166e-015 8.74653e-015
lhumerus -27.7366 9.69047 87.0969
lradius 14.5296
lwrist -25.1432
lhand -22.2133 2.19414
lfingers 7.12502
lthumb 4.2028 32.1324
rfemur -24.0631 7.49625 22.743
rtibia 27.5498
rfoot -8.96314 -11.7255
rtoes -3.61762
lfemur -3.15011 -4.9104 -24.9607
ltibia 39.4105
lfoot -11.5273 -4.23289
ltoes -23.1347
996
root 3.48288 16.3891 -3.49044 177.199 -93.9028 -170.889
lowerback 0.413383 -0.268787 -0.142437
upperback 0.203331 -0.363533 1.26746
thorax -0.0145198 -0.184785 1.37846
lowerneck -18.9575 0.608331 0.182669
upperneck 18.418 0.941025 -0.971325
head 8.90285 0.321034 -0.242724
rclavicle 3.97569e-015 3.18055e-015
rhumerus -31.3398 -6.22671 -80.8427
rradius 19.5251
rwrist 32.3288
rhand -24.993 2.55915
rfingers 7.12502
rthumb 1.51834 -27.4152
lclavicle 3.97569e-015 3.18055e-015
lhumerus -27.9546 10.0225 86.8256
lradius 14.4179
lwrist -25.7484
lhand -21.6559 2.13833
lfingers 7.12502
lthumb 4.74099 32.0653
rfemur -23.4922 7.59704 23.2999
rtibia 27.3667
rfoot -9.12964 -11.5169
rtoes -3.31336
lfemur -4.4901 -3.94941 -24.1478
ltibia 42.1672
lfoot -9.59798 -5.16567
ltoes -22.0685
997
root 3.47512 16.3831 -3.50858 182.449 -93.8227 -176.152
lowerback 0.401258 -0.201376 0.203418
upperback 0.175617 -0.273398 1.34581
thorax -0.0395678 -0.139938 1.26437
lowerneck -19.0311 0.571903 0.176456
upperneck 18.5833 0.879114 -0.912595
head 8.97213 0.296424 -0.2298
rclavicle 8.34896e-015 -1.15295e-014
rhumerus -31.3114 -5.78445 -81.018
rradius 19.7411
rwrist 31.9753
rhand -24.8986 2.55528
rfingers 7.12502
rthumb 1.60948 -27.4184
lclavicle 8.34896e-015 -1.15295e-014
lhumerus -28.2087 9.89858 86.7367
lradius 14.5279
lwrist -25.7344
lhand -21.0152 2.38948
lfingers 7.12502
lthumb 5.35963 32.3017
rfemur -22.8749 7.68284 23.8775
rtibia 27.1541
rfoot -9.35258 -11.2977
rtoes -2.47245
lfemur -5.88826 -3.14319 -23.3381
ltibia 44.9594
lfoot -7.47301 -5.75135
ltoes -21.9981
998
root 3.46884 16.3781 -3.52448 187.08 -93.8519 -180.841
lowerback 0.445 -0.142863 0.500363
upperback 0.154056 -0.194575 1.41428
thorax -0.0884933 -0.100879 1.16782
lowerneck -18.9718 0.528789 0.198783
upperneck 18.6116 0.807054 -0.88932
head 8.97078 0.266586 -0.235152
rclavicle -1.82882e-014 -1.27222e-014
rhumerus -31.2922 -5.44903 -81.1131
rradius 19.9358
rwrist 31.797
rhand -24.8134 2.44814
rfingers 7.12502
rthumb 1.69178 -27.5249
lclavicle -1.82882e-014 -1.27222e-014
lhumerus -28.471 9.76596 86.6529
lradius 14.6588
lwrist -25.6996
lhand -20.5951 2.52712
lfingers 7.12502
lthumb 5.76526 32.4287
rfemur -22.2307 7.72514 24.4189
rtibia 26.8722
rfoot -9.53407 -11.2427
rtoes -3.04402
lfemur -7.25861 -2.50915 -22.6001
ltibia 47.7695
lfoot -5.42801 -6.21059
ltoes -21.9885
